<?xml version="1.0" encoding="utf-8"?>
<!-- Generator: Adobe Illustrator 22.1.0, SVG Export Plug-In . SVG Version: 6.00 Build 0)  -->
<svg version="1.1" id="Layer_1" xmlns="http://www.w3.org/2000/svg" xmlns:xlink="http://www.w3.org/1999/xlink" x="0px" y="0px"
	 viewBox="0 0 595.3 841.9" style="enable-background:new 0 0 595.3 841.9;" xml:space="preserve">
<style type="text/css">
	.st0{fill:none;stroke:#1A9DC1;stroke-width:5;stroke-miterlimit:10;}
	.st1{fill:#1A9DC1;}
	.st2{fill:none;}
	.st3{fill:#3B4040;}
</style>
<line class="st0" x1="206.6" y1="397.6" x2="206.6" y2="450.4"/>
<path class="st1" d="M201.8,434.6c1.1,0.8,2.8,1.8,4.4,2.8v-8.3c-2.3-1.5-4.6-3.2-5.9-5.1c-1.7-2.6-1.1-6.2,1.6-8.2
	c0.9,0.7,2.5,1.7,4.2,2.9v-8.4c-2.5-1.7-5.1-3.9-4.7-7c0.1-0.9,1.4-2.5,2.7-3.1c0.6-0.3,1.3-0.4,2-0.5l-0.2-2.3
	c-4,0.3-7.4,2.4-8.9,4.9c-2.5,4.2-0.4,8.8,3.1,11.9c-2.6,2.8-6.7,5.6-5.9,11.2C194.9,429.6,198.7,432.3,201.8,434.6"/>
<path class="st1" d="M206.2,448.3c-1.7,0-3.4-0.5-3.6-1.8c-0.3-1.5,1-2.4,0.7-4c-0.3-1.4-1.9-2.7-4.1-2.3c-2.3,0.5-3.1,3.7-2,6
	c1.5,3,5.3,4.3,9.1,4.3L206.2,448.3L206.2,448.3z"/>
<polyline class="st2" points="401.7,386.3 194.2,386.3 194.2,455.2 401.7,455.2 401.7,386.3 "/>
<g>
	<g>
		<path class="st3" d="M352.8,426.3h-1.2c-3.8,0-5.1-2.4-5.1-4.8v-26h3.6v23.9c0,3.4,0.4,4,3.2,4L352.8,426.3z"/>
	</g>
	<g>
		<path class="st3" d="M343.3,426.3h-1.2c-3.8,0-5.1-2.4-5.1-4.8v-26h3.6v23.9c0,3.4,0.4,4,3.2,4L343.3,426.3z"/>
	</g>
	<g>
		<path class="st3" d="M318.8,416c0.5,5.5,3.7,7.1,7.4,7.1c1.8,0,3.9-0.4,5.7-1.2l0.5,2.9c-1.5,0.7-3.8,1.5-6.6,1.5
			c-7,0-10.7-4.8-10.7-10.5c0-5.5,3.6-10.2,9.7-10.2c4.9,0,8.5,3,8.5,8.4c0,0.6,0,1.3-0.2,1.9h-14.3V416z M319.1,413.5h10.4
			c0-2.8-1.5-4.6-4.9-4.6C321.5,408.9,319.8,410.6,319.1,413.5z"/>
	</g>
	<g>
		<path class="st3" d="M307.3,425.9v-13h-16v13h-3.8v-28.3h3.8v11.7h16v-11.7h3.8v28.3H307.3z"/>
	</g>
	<g>
		<path class="st3" d="M274,425.9v-3.5h3.6v3.5H274z"/>
	</g>
	<g>
		<path class="st3" d="M246.1,411.7c0-8.9,5.9-14.7,14.2-14.7c2.8,0,6.3,0.7,8.4,1.6l-0.4,3.4c-2.3-0.8-5.3-1.5-7.9-1.5
			c-6.9,0-10.1,5-10.1,11.3c0,6.5,3.4,11.3,10.8,11.3c1.2,0,3.2-0.2,4.7-0.8v-7h-4.5v-3.5h8.3v12.6c-2.2,1.2-6.4,2.1-9.7,2.1
			C252.1,426.5,246.1,420.8,246.1,411.7z"/>
	</g>
	<g>
		<path class="st3" d="M241.6,425.9v-3.5h3.6v3.5H241.6z"/>
	</g>
	<g>
		<path class="st3" d="M234.4,425.9v-13h-16v13h-3.8v-28.3h3.8v11.7h16v-11.7h3.8v28.3H234.4z"/>
	</g>
</g>
<g>
	<path class="st1" d="M219.4,450.4l-2.6-4.6h-2.5v4.6h-1.7v-11.8h3.8c2.5,0,4.1,0.8,4.1,3.5c0,1.5-0.8,2.7-2.2,3.3l2.7,5H219.4z
		 M214.3,439.9v4.4h2.5c0.9,0,2-0.5,2-2.2c0-1.4-0.8-2.2-2.4-2.2L214.3,439.9L214.3,439.9z"/>
	<path class="st1" d="M223.2,446.3c0.2,2.3,1.5,3,3.1,3c0.8,0,1.6-0.2,2.4-0.5l0.2,1.2c-0.6,0.3-1.6,0.6-2.8,0.6
		c-2.9,0-4.5-2-4.5-4.4c0-2.3,1.5-4.2,4-4.2c2.1,0,3.6,1.3,3.6,3.5c0,0.2,0,0.5-0.1,0.8H223.2z M223.4,445.2h4.3
		c0-1.2-0.6-1.9-2-1.9C224.4,443.3,223.7,444,223.4,445.2z"/>
	<path class="st1" d="M230.4,446.3c0-2.4,1.3-4.3,4.1-4.3c1.2,0,2.1,0.2,2.5,0.5l-0.2,1.4c-0.7-0.3-1.4-0.5-2.1-0.5
		c-1.8,0-2.7,1.1-2.7,2.9s0.9,3,2.7,3c0.8,0,1.5-0.2,2.2-0.5l0.2,1.2c-0.5,0.3-1.2,0.6-2.5,0.6C231.7,450.6,230.4,448.6,230.4,446.3
		z"/>
	<path class="st1" d="M244.1,450.4V446c0-2-0.5-2.7-2-2.7c-1,0-1.7,0.3-2.2,1.1v6h-1.5v-12.6h1.5v5.3c0.6-0.7,1.3-1.1,2.4-1.1
		c2.4,0,3.3,1.6,3.3,4v4.4L244.1,450.4L244.1,450.4z"/>
	<path class="st1" d="M251.7,450.6h-1.4c-1.6,0-2.2-1-2.2-2v-5.3h-1.4l0.1-1.2h1.3v-2l1.5-0.2v2.2h2.2v1.2h-2.2v4.4
		c0,1.6,0.1,1.7,1.7,1.7h0.4L251.7,450.6z"/>
	<path class="st1" d="M252.7,449.9l0.2-1.5c0.4,0.3,1.3,0.8,2.6,0.8c1.1,0,1.7-0.4,1.7-1c0-0.9-1-1.2-1.7-1.4
		c-1.1-0.3-2.6-0.7-2.6-2.4c0-1.3,0.8-2.5,3.1-2.5c1.1,0,1.7,0.3,2.2,0.5l-0.2,1.4c-0.5-0.4-1.1-0.7-2-0.7s-1.6,0.3-1.6,1.1
		s0.6,1,1.9,1.4c0.8,0.2,2.4,0.7,2.4,2.5c0,1.1-0.6,2.5-3.2,2.5C254.1,450.6,253.1,450.1,252.7,449.9z"/>
	<path class="st1" d="M266.9,450.6h-0.1c-1.5,0-1.8-0.4-2.1-1.2c-0.6,0.7-1.5,1.2-2.5,1.2c-1.5,0-2.5-1-2.5-2.4c0-2.3,2.8-2.9,4.9-3
		c0-1.6-0.6-1.9-1.8-1.9c-0.6,0-1.3,0.1-2.2,0.7l-0.2-1.2c0.7-0.5,1.7-0.9,2.8-0.9c2.1,0,2.9,1,2.9,4v1.7c0,1.2,0.1,1.7,0.9,1.7h0.2
		L266.9,450.6z M264.5,446.3c-2.4,0.1-3.4,0.6-3.4,1.8c0,0.9,0.5,1.3,1.3,1.3s1.6-0.4,2.1-1.1V446.3z"/>
	<path class="st1" d="M274.2,450.4v-4.6c0-1.8-0.6-2.5-2.2-2.5c-0.9,0-1.8,0.3-2.3,1.1v6h-1.5v-8.3h1.2l0.2,0.9c0.9-0.8,1.9-1,2.7-1
		c2.4,0,3.4,1.5,3.4,3.9v4.6h-1.5L274.2,450.4L274.2,450.4z"/>
	<path class="st1" d="M286.1,450.4h-1.7l-1.7-6.1l-1.7,6.1h-1.7l-2.5-8.3h1.8l1.6,6.6l1.8-6.3h1.6l1.8,6.3l1.6-6.6h1.8L286.1,450.4z
		"/>
	<path class="st1" d="M296.4,450.6h-0.1c-1.5,0-1.8-0.4-2.1-1.2c-0.6,0.7-1.5,1.2-2.5,1.2c-1.5,0-2.5-1-2.5-2.4c0-2.3,2.8-2.9,4.9-3
		c0-1.6-0.6-1.9-1.8-1.9c-0.6,0-1.3,0.1-2.2,0.7l-0.2-1.2c0.7-0.5,1.7-0.9,2.8-0.9c2.1,0,2.9,1,2.9,4v1.7c0,1.2,0.1,1.7,0.9,1.7h0.2
		L296.4,450.6z M294.1,446.3c-2.4,0.1-3.4,0.6-3.4,1.8c0,0.9,0.5,1.3,1.3,1.3s1.6-0.4,2.1-1.1V446.3z"/>
	<path class="st1" d="M300.5,450.6H300c-1.6,0-2.1-1-2.1-2v-10.8h1.5v9.9c0,1.4,0.2,1.7,1.3,1.7L300.5,450.6z"/>
	<path class="st1" d="M305.9,450.6h-1.4c-1.6,0-2.2-1-2.2-2v-5.3H301l0.1-1.2h1.3v-2l1.5-0.2v2.2h2.2v1.2h-2.2v4.4
		c0,1.6,0.1,1.7,1.7,1.7h0.4L305.9,450.6z"/>
	<path class="st1" d="M316.6,450.4l-0.2-0.9c-0.5,0.7-1.2,1.1-2.3,1.1c-1.9,0-3.1-1.1-3.1-3.6v-4.8h1.5v4.4c0,1.8,0.6,2.7,1.9,2.7
		c0.8,0,1.5-0.3,1.9-0.9v-6.1h1.5v8.3h-1.2L316.6,450.4L316.6,450.4z"/>
	<path class="st1" d="M326,450.4v-4.6c0-1.8-0.6-2.5-2.2-2.5c-0.9,0-1.8,0.3-2.3,1.1v6H320v-8.3h1.2l0.2,0.9c0.9-0.8,1.9-1,2.7-1
		c2.4,0,3.4,1.5,3.4,3.9v4.6H326V450.4z"/>
	<path class="st1" d="M335.4,450.4l-0.2-1c-0.6,0.8-1.8,1.2-2.5,1.2c-2.1,0-3.8-1.9-3.8-4.3c0-2.3,1.5-4.3,3.8-4.3
		c0.7,0,1.8,0.2,2.5,1v-5.3h1.5v12.6L335.4,450.4L335.4,450.4z M330.5,446.3c0,1.6,0.9,3,2.3,3c1.2,0,2.6-0.8,2.6-2.9
		c0-2-1.4-3-2.6-3C331.4,443.3,330.5,444.6,330.5,446.3z"/>
	<path class="st1" d="M350.7,450.4l-6.2-9.3v9.3h-1.6v-11.8h1.7l5.8,8.8v-8.8h1.6v11.8H350.7z"/>
	<path class="st1" d="M353.8,446.3c0-2.4,1.5-4.3,4.1-4.3s4.1,1.9,4.1,4.3s-1.5,4.3-4.1,4.3C355.3,450.6,353.8,448.7,353.8,446.3z
		 M355.3,446.3c0,1.9,0.9,3,2.5,3s2.5-1.1,2.5-3s-0.9-3-2.5-3C356.2,443.3,355.3,444.4,355.3,446.3z"/>
	<path class="st1" d="M367.6,450.6h-1.4c-1.6,0-2.2-1-2.2-2v-5.3h-1.4l0.1-1.2h1.3v-2l1.5-0.2v2.2h2.2v1.2h-2.2v4.4
		c0,1.6,0.1,1.7,1.7,1.7h0.4V450.6z"/>
	<path class="st1" d="M375.8,450.6h-0.1c-1.5,0-1.8-0.4-2.1-1.2c-0.6,0.7-1.5,1.2-2.5,1.2c-1.5,0-2.5-1-2.5-2.4c0-2.3,2.8-2.9,4.9-3
		c0-1.6-0.6-1.9-1.8-1.9c-0.6,0-1.3,0.1-2.2,0.7l-0.2-1.2c0.7-0.5,1.7-0.9,2.8-0.9c2.1,0,2.9,1,2.9,4v1.7c0,1.2,0.1,1.7,0.9,1.7h0.2
		L375.8,450.6z M373.4,446.3c-2.4,0.1-3.4,0.6-3.4,1.8c0,0.9,0.5,1.3,1.3,1.3s1.6-0.4,2.1-1.1V446.3z"/>
	<path class="st1" d="M381.2,443.5h-0.5c-0.7,0-1.6,0.5-1.9,1.1v5.8h-1.6v-8.3h1.2l0.2,1.4c1-1.1,1.8-1.7,2.8-1.7h0.1L381.2,443.5z"
		/>
</g>
<path class="st1" d="M394.5,450.5h-0.1c-1.5,0-1.8-0.4-2.1-1.2c-0.6,0.7-1.5,1.2-2.5,1.2c-1.5,0-2.5-1-2.5-2.4c0-2.3,2.8-2.9,4.9-3
	c0-1.6-0.6-1.9-1.8-1.9c-0.6,0-1.3,0.1-2.2,0.7l-0.2-1.2c0.7-0.5,1.7-0.9,2.8-0.9c2.1,0,2.9,1,2.9,4v1.7c0,1.2,0.1,1.7,0.9,1.7h0.2
	L394.5,450.5z M392.1,446.2c-2.4,0.1-3.4,0.6-3.4,1.8c0,0.9,0.5,1.3,1.3,1.3s1.6-0.4,2.1-1.1V446.2z"/>
<g>
	<path class="st1" d="M396.6,448.6h1.8v1.8h-1.8V448.6z"/>
	<path class="st1" d="M400.6,438.6h4.4c1.1,0,2.2,0.2,3.1,0.7c0.9,0.5,1.6,1.2,2.1,2c0.5,0.9,0.7,2,0.7,3.2c0,1.2-0.2,2.3-0.7,3.2
		c-0.5,0.9-1.2,1.6-2.1,2c-0.9,0.5-1.9,0.7-3.1,0.7h-4.4V438.6z M405,449c1.3,0,2.3-0.4,3.1-1.2c0.7-0.8,1.1-1.9,1.1-3.3
		c0-1.4-0.4-2.4-1.1-3.3c-0.7-0.8-1.7-1.2-3.1-1.2h-2.8v8.9H405z"/>
	<path class="st1" d="M412.2,448.6h1.8v1.8h-1.8V448.6z"/>
</g>
</svg>
