<?xml version="1.0" encoding="utf-8"?>
<svg version="1.1" id="Layer_1" xmlns="http://www.w3.org/2000/svg" xmlns:xlink="http://www.w3.org/1999/xlink" x="0px" y="0px"
	 viewBox="0 0 220 69" xml:space="preserve">
<path fill="#1A9DC1" d="M11.8,11.1L11.8,11.1L11.8,11.1c-4,0.3-7.4,2.4-8.9,4.9C0.4,20.2,2.5,24.8,6,27.9c-2.6,2.8-6.7,5.6-5.9,11.2
	c0.7,4.2,4.5,6.9,7.6,9.2c0.6,0.5,1.5,1,2.4,1.6v11.8c-0.9-0.3-1.5-0.8-1.6-1.5c-0.3-1.5,1-2.4,0.7-4c-0.3-1.4-1.9-2.7-4.1-2.3
	c-2.3,0.5-3.1,3.7-2,6c1.5,3,5.3,4.3,9.1,4.3v0l0,0l2.9,0V11.1L11.8,11.1z M7.3,17c0.1-0.9,1.4-2.5,2.7-3.1c0,0,0.1,0,0.1,0v8.7
	C8.4,21.1,7,19.3,7.3,17z M6.2,37.7c-1.7-2.6-1.1-6.2,1.6-8.2c0.6,0.4,1.4,1,2.3,1.6v10.3C8.5,40.3,7.1,39,6.2,37.7z"/>
<path fill="#3B4040" d="M158.7,40h-1.2c-3.8,0-5.1-2.4-5.1-4.8v-26h3.6v23.9c0,3.4,0.4,4,3.2,4L158.7,40z M149.2,40H148
	c-3.8,0-5.1-2.4-5.1-4.8v-26h3.6v23.9c0,3.4,0.4,4,3.2,4L149.2,40z M124.7,29.7c0.5,5.5,3.7,7.1,7.4,7.1c1.8,0,3.9-0.4,5.7-1.2
	l0.5,2.9c-1.5,0.7-3.8,1.5-6.6,1.5c-7,0-10.7-4.8-10.7-10.5c0-5.5,3.6-10.2,9.7-10.2c4.9,0,8.5,3,8.5,8.4c0,0.6,0,1.3-0.2,1.9h-14.3
	V29.7z M125,27.2h10.4c0-2.8-1.5-4.6-4.9-4.6C127.4,22.6,125.7,24.3,125,27.2z M113.2,39.6v-13h-16v13h-3.8V11.3h3.8V23h16V11.3h3.8
	v28.3H113.2z M79.9,39.6v-3.5h3.6v3.5H79.9z M52,25.4c0-8.9,5.9-14.7,14.2-14.7c2.8,0,6.3,0.7,8.4,1.6l-0.4,3.4
	c-2.3-0.8-5.3-1.5-7.9-1.5c-6.9,0-10.1,5-10.1,11.3c0,6.5,3.4,11.3,10.8,11.3c1.2,0,3.2-0.2,4.7-0.8v-7h-4.5v-3.5h8.3v12.6
	c-2.2,1.2-6.4,2.1-9.7,2.1C58,40.2,52,34.5,52,25.4z M47.5,39.6v-3.5h3.6v3.5H47.5z M40.3,39.6v-13h-16v13h-3.8V11.3h3.8V23h16V11.3
	h3.8v28.3H40.3z"/>
<path fill="#1A9DC1" d="M25.3,64.1l-2.6-4.6h-2.5v4.6h-1.7V52.3h3.8c2.5,0,4.1,0.8,4.1,3.5c0,1.5-0.8,2.7-2.2,3.3l2.7,5H25.3z
	 M20.2,53.6V58h2.5c0.9,0,2-0.5,2-2.2c0-1.4-0.8-2.2-2.4-2.2L20.2,53.6L20.2,53.6z M29.1,60c0.2,2.3,1.5,3,3.1,3
	c0.8,0,1.6-0.2,2.4-0.5l0.2,1.2c-0.6,0.3-1.6,0.6-2.8,0.6c-2.9,0-4.5-2-4.5-4.4c0-2.3,1.5-4.2,4-4.2c2.1,0,3.6,1.3,3.6,3.5
	c0,0.2,0,0.5-0.1,0.8H29.1z M29.3,58.9h4.3c0-1.2-0.6-1.9-2-1.9C30.3,57,29.6,57.7,29.3,58.9z M36.3,60c0-2.4,1.3-4.3,4.1-4.3
	c1.2,0,2.1,0.2,2.5,0.5l-0.2,1.4c-0.7-0.3-1.4-0.5-2.1-0.5c-1.8,0-2.7,1.1-2.7,2.9s0.9,3,2.7,3c0.8,0,1.5-0.2,2.2-0.5l0.2,1.2
	c-0.5,0.3-1.2,0.6-2.5,0.6C37.6,64.3,36.3,62.3,36.3,60z M50,64.1v-4.4c0-2-0.5-2.7-2-2.7c-1,0-1.7,0.3-2.2,1.1v6h-1.5V51.5h1.5v5.3
	c0.6-0.7,1.3-1.1,2.4-1.1c2.4,0,3.3,1.6,3.3,4v4.4L50,64.1L50,64.1z M57.6,64.3h-1.4c-1.6,0-2.2-1-2.2-2V57h-1.4l0.1-1.2H54v-2
	l1.5-0.2v2.2h2.2V57h-2.2v4.4c0,1.6,0.1,1.7,1.7,1.7h0.4L57.6,64.3z M58.6,63.6l0.2-1.5c0.4,0.3,1.3,0.8,2.6,0.8
	c1.1,0,1.7-0.4,1.7-1c0-0.9-1-1.2-1.7-1.4c-1.1-0.3-2.6-0.7-2.6-2.4c0-1.3,0.8-2.5,3.1-2.5c1.1,0,1.7,0.3,2.2,0.5l-0.2,1.4
	c-0.5-0.4-1.1-0.7-2-0.7s-1.6,0.3-1.6,1.1s0.6,1,1.9,1.4c0.8,0.2,2.4,0.7,2.4,2.5c0,1.1-0.6,2.5-3.2,2.5C60,64.3,59,63.8,58.6,63.6z
	 M72.8,64.3h-0.1c-1.5,0-1.8-0.4-2.1-1.2c-0.6,0.7-1.5,1.2-2.5,1.2c-1.5,0-2.5-1-2.5-2.4c0-2.3,2.8-2.9,4.9-3c0-1.6-0.6-1.9-1.8-1.9
	c-0.6,0-1.3,0.1-2.2,0.7l-0.2-1.2c0.7-0.5,1.7-0.9,2.8-0.9c2.1,0,2.9,1,2.9,4v1.7c0,1.2,0.1,1.7,0.9,1.7h0.2L72.8,64.3z M70.4,60
	C68,60.1,67,60.6,67,61.8c0,0.9,0.5,1.3,1.3,1.3s1.6-0.4,2.1-1.1V60z M80.1,64.1v-4.6c0-1.8-0.6-2.5-2.2-2.5c-0.9,0-1.8,0.3-2.3,1.1
	v6h-1.5v-8.3h1.2l0.2,0.9c0.9-0.8,1.9-1,2.7-1c2.4,0,3.4,1.5,3.4,3.9v4.6h-1.5L80.1,64.1L80.1,64.1z M92,64.1h-1.7L88.6,58l-1.7,6.1
	h-1.7l-2.5-8.3h1.8l1.6,6.6l1.8-6.3h1.6l1.8,6.3l1.6-6.6h1.8L92,64.1z M102.3,64.3h-0.1c-1.5,0-1.8-0.4-2.1-1.2
	c-0.6,0.7-1.5,1.2-2.5,1.2c-1.5,0-2.5-1-2.5-2.4c0-2.3,2.8-2.9,4.9-3c0-1.6-0.6-1.9-1.8-1.9c-0.6,0-1.3,0.1-2.2,0.7l-0.2-1.2
	c0.7-0.5,1.7-0.9,2.8-0.9c2.1,0,2.9,1,2.9,4v1.7c0,1.2,0.1,1.7,0.9,1.7h0.2L102.3,64.3z M100,60c-2.4,0.1-3.4,0.6-3.4,1.8
	c0,0.9,0.5,1.3,1.3,1.3s1.6-0.4,2.1-1.1V60z M106.4,64.3h-0.5c-1.6,0-2.1-1-2.1-2V51.5h1.5v9.9c0,1.4,0.2,1.7,1.3,1.7L106.4,64.3z
	 M111.8,64.3h-1.4c-1.6,0-2.2-1-2.2-2V57h-1.3l0.1-1.2h1.3v-2l1.5-0.2v2.2h2.2V57h-2.2v4.4c0,1.6,0.1,1.7,1.7,1.7h0.4L111.8,64.3z
	 M122.5,64.1l-0.2-0.9c-0.5,0.7-1.2,1.1-2.3,1.1c-1.9,0-3.1-1.1-3.1-3.6v-4.8h1.5v4.4c0,1.8,0.6,2.7,1.9,2.7c0.8,0,1.5-0.3,1.9-0.9
	V56h1.5v8.3h-1.2L122.5,64.1L122.5,64.1z M131.9,64.1v-4.6c0-1.8-0.6-2.5-2.2-2.5c-0.9,0-1.8,0.3-2.3,1.1v6h-1.5v-8.3h1.2l0.2,0.9
	c0.9-0.8,1.9-1,2.7-1c2.4,0,3.4,1.5,3.4,3.9v4.6h-1.5V64.1z M141.3,64.1l-0.2-1c-0.6,0.8-1.8,1.2-2.5,1.2c-2.1,0-3.8-1.9-3.8-4.3
	c0-2.3,1.5-4.3,3.8-4.3c0.7,0,1.8,0.2,2.5,1v-5.3h1.5V64L141.3,64.1L141.3,64.1z M136.4,60c0,1.6,0.9,3,2.3,3c1.2,0,2.6-0.8,2.6-2.9
	c0-2-1.4-3-2.6-3C137.3,57,136.4,58.3,136.4,60z M156.6,64.1l-6.2-9.3v9.3h-1.6V52.3h1.7l5.8,8.8v-8.8h1.6v11.8H156.6z M159.7,60
	c0-2.4,1.5-4.3,4.1-4.3s4.1,1.9,4.1,4.3s-1.5,4.3-4.1,4.3C161.2,64.3,159.7,62.4,159.7,60z M161.2,60c0,1.9,0.9,3,2.5,3
	s2.5-1.1,2.5-3s-0.9-3-2.5-3C162.1,57,161.2,58.1,161.2,60z M173.5,64.3h-1.4c-1.6,0-2.2-1-2.2-2V57h-1.4l0.1-1.2h1.3v-2l1.5-0.2
	v2.2h2.2V57h-2.2v4.4c0,1.6,0.1,1.7,1.7,1.7h0.4V64.3z M181.7,64.3h-0.1c-1.5,0-1.8-0.4-2.1-1.2c-0.6,0.7-1.5,1.2-2.5,1.2
	c-1.5,0-2.5-1-2.5-2.4c0-2.3,2.8-2.9,4.9-3c0-1.6-0.6-1.9-1.8-1.9c-0.6,0-1.3,0.1-2.2,0.7l-0.2-1.2c0.7-0.5,1.7-0.9,2.8-0.9
	c2.1,0,2.9,1,2.9,4v1.7c0,1.2,0.1,1.7,0.9,1.7h0.2L181.7,64.3z M179.3,60c-2.4,0.1-3.4,0.6-3.4,1.8c0,0.9,0.5,1.3,1.3,1.3
	s1.6-0.4,2.1-1.1V60z M187.1,57.2h-0.5c-0.7,0-1.6,0.5-1.9,1.1v5.8h-1.6v-8.3h1.2l0.2,1.4c1-1.1,1.8-1.7,2.8-1.7h0.1L187.1,57.2z
	 M200.4,64.2h-0.1c-1.5,0-1.8-0.4-2.1-1.2c-0.6,0.7-1.5,1.2-2.5,1.2c-1.5,0-2.5-1-2.5-2.4c0-2.3,2.8-2.9,4.9-3
	c0-1.6-0.6-1.9-1.8-1.9c-0.6,0-1.3,0.1-2.2,0.7l-0.2-1.2c0.7-0.5,1.7-0.9,2.8-0.9c2.1,0,2.9,1,2.9,4v1.7c0,1.2,0.1,1.7,0.9,1.7h0.2
	L200.4,64.2z M198,59.9c-2.4,0.1-3.4,0.6-3.4,1.8c0,0.9,0.5,1.3,1.3,1.3s1.6-0.4,2.1-1.1V59.9z M202.5,62.3h1.8v1.8h-1.8V62.3z
	 M206.5,52.3h4.4c1.1,0,2.2,0.2,3.1,0.7s1.6,1.2,2.1,2c0.5,0.9,0.7,2,0.7,3.2s-0.2,2.3-0.7,3.2c-0.5,0.9-1.2,1.6-2.1,2
	c-0.9,0.5-1.9,0.7-3.1,0.7h-4.4V52.3z M210.9,62.7c1.3,0,2.3-0.4,3.1-1.2c0.7-0.8,1.1-1.9,1.1-3.3s-0.4-2.4-1.1-3.3
	c-0.7-0.8-1.7-1.2-3.1-1.2h-2.8v9L210.9,62.7z M218.1,62.3h1.8v1.8h-1.8V62.3z"/>
</svg>
