<svg xmlns="http://www.w3.org/2000/svg" viewBox="0 0 207.6 68.9"><defs><style>.cls-1,.cls-3{fill:none;}.cls-1{stroke:#1a9dc1;stroke-miterlimit:10;stroke-width:5px;}.cls-2{fill:#1a9dc1;}.cls-4{fill:#3b4040;}</style></defs><title>Asset 1</title><g id="Layer_2" data-name="Layer 2"><g id="Layer_1-2" data-name="Layer 1"><line class="cls-1" x1="12.5" y1="11.3" x2="12.5" y2="64.1"/><path class="cls-2" d="M7.7,48.3c1.1.8,2.8,1.8,4.4,2.8V42.8a21.33,21.33,0,0,1-5.9-5.1,6.08,6.08,0,0,1,1.6-8.2c.9.7,2.5,1.7,4.2,2.9V24c-2.5-1.7-5.1-3.9-4.7-7A5.27,5.27,0,0,1,10,13.9a6.53,6.53,0,0,1,2-.5l-.2-2.3c-4,.3-7.4,2.4-8.9,4.9C.4,20.2,2.5,24.8,6,27.9,3.4,30.7-.7,33.5.1,39.1c.7,4.2,4.5,6.9,7.6,9.2"/><path class="cls-2" d="M12.1,62c-1.7,0-3.4-.5-3.6-1.8-.3-1.5,1-2.4.7-4a3.38,3.38,0,0,0-4.1-2.3c-2.3.5-3.1,3.7-2,6,1.5,3,5.3,4.3,9.1,4.3V62Z"/><polyline class="cls-3" points="207.6 0 0.1 0 0.1 68.9 207.6 68.9 207.6 0"/><path class="cls-4" d="M158.7,40h-1.2c-3.8,0-5.1-2.4-5.1-4.8V9.2H156V33.1c0,3.4.4,4,3.2,4Z"/><path class="cls-4" d="M149.2,40H148c-3.8,0-5.1-2.4-5.1-4.8V9.2h3.6V33.1c0,3.4.4,4,3.2,4Z"/><path class="cls-4" d="M124.7,29.7c.5,5.5,3.7,7.1,7.4,7.1a14.59,14.59,0,0,0,5.7-1.2l.5,2.9a15.68,15.68,0,0,1-6.6,1.5c-7,0-10.7-4.8-10.7-10.5,0-5.5,3.6-10.2,9.7-10.2,4.9,0,8.5,3,8.5,8.4a6.15,6.15,0,0,1-.2,1.9H124.7Zm.3-2.5h10.4c0-2.8-1.5-4.6-4.9-4.6C127.4,22.6,125.7,24.3,125,27.2Z"/><path class="cls-4" d="M113.2,39.6v-13h-16v13H93.4V11.3h3.8V23h16V11.3H117V39.6Z"/><path class="cls-4" d="M79.9,39.6V36.1h3.6v3.5Z"/><path class="cls-4" d="M52,25.4c0-8.9,5.9-14.7,14.2-14.7a24.15,24.15,0,0,1,8.4,1.6l-.4,3.4a25.75,25.75,0,0,0-7.9-1.5c-6.9,0-10.1,5-10.1,11.3,0,6.5,3.4,11.3,10.8,11.3a14,14,0,0,0,4.7-.8V29H67.2V25.5h8.3V38.1a23.53,23.53,0,0,1-9.7,2.1C58,40.2,52,34.5,52,25.4Z"/><path class="cls-4" d="M47.5,39.6V36.1h3.6v3.5Z"/><path class="cls-4" d="M40.3,39.6v-13h-16v13H20.5V11.3h3.8V23h16V11.3h3.8V39.6Z"/><path class="cls-2" d="M25.3,64.1l-2.6-4.6H20.2v4.6H18.5V52.3h3.8c2.5,0,4.1.8,4.1,3.5a3.46,3.46,0,0,1-2.2,3.3l2.7,5ZM20.2,53.6V58h2.5a1.94,1.94,0,0,0,2-2.2c0-1.4-.8-2.2-2.4-2.2Z"/><path class="cls-2" d="M29.1,60c.2,2.3,1.5,3,3.1,3a6.87,6.87,0,0,0,2.4-.5l.2,1.2a6.48,6.48,0,0,1-2.8.6,4.22,4.22,0,0,1-4.5-4.4,3.94,3.94,0,0,1,4-4.2,3.33,3.33,0,0,1,3.6,3.5,2.49,2.49,0,0,1-.1.8Zm.2-1.1h4.3c0-1.2-.6-1.9-2-1.9A2.19,2.19,0,0,0,29.3,58.9Z"/><path class="cls-2" d="M36.3,60c0-2.4,1.3-4.3,4.1-4.3a4.68,4.68,0,0,1,2.5.5l-.2,1.4a5.37,5.37,0,0,0-2.1-.5c-1.8,0-2.7,1.1-2.7,2.9s.9,3,2.7,3a5.45,5.45,0,0,0,2.2-.5l.2,1.2a4.51,4.51,0,0,1-2.5.6A4,4,0,0,1,36.3,60Z"/><path class="cls-2" d="M50,64.1V59.7c0-2-.5-2.7-2-2.7a2.32,2.32,0,0,0-2.2,1.1v6H44.3V51.5h1.5v5.3a2.9,2.9,0,0,1,2.4-1.1c2.4,0,3.3,1.6,3.3,4v4.4Z"/><path class="cls-2" d="M57.6,64.3H56.2a2,2,0,0,1-2.2-2V57H52.6l.1-1.2H54v-2l1.5-.2v2.2h2.2V57H55.5v4.4c0,1.6.1,1.7,1.7,1.7h.4Z"/><path class="cls-2" d="M58.6,63.6l.2-1.5a4.38,4.38,0,0,0,2.6.8c1.1,0,1.7-.4,1.7-1,0-.9-1-1.2-1.7-1.4-1.1-.3-2.6-.7-2.6-2.4,0-1.3.8-2.5,3.1-2.5a5.07,5.07,0,0,1,2.2.5l-.2,1.4a3,3,0,0,0-2-.7c-.9,0-1.6.3-1.6,1.1s.6,1,1.9,1.4a2.66,2.66,0,0,1,2.4,2.5c0,1.1-.6,2.5-3.2,2.5A6.09,6.09,0,0,1,58.6,63.6Z"/><path class="cls-2" d="M72.8,64.3h-.1c-1.5,0-1.8-.4-2.1-1.2a3.34,3.34,0,0,1-2.5,1.2,2.34,2.34,0,0,1-2.5-2.4c0-2.3,2.8-2.9,4.9-3,0-1.6-.6-1.9-1.8-1.9a3.7,3.7,0,0,0-2.2.7l-.2-1.2a4.91,4.91,0,0,1,2.8-.9c2.1,0,2.9,1,2.9,4v1.7c0,1.2.1,1.7.9,1.7h.2ZM70.4,60c-2.4.1-3.4.6-3.4,1.8a1.16,1.16,0,0,0,1.3,1.3A2.61,2.61,0,0,0,70.4,62Z"/><path class="cls-2" d="M80.1,64.1V59.5c0-1.8-.6-2.5-2.2-2.5a2.59,2.59,0,0,0-2.3,1.1v6H74.1V55.8h1.2l.2.9a4,4,0,0,1,2.7-1c2.4,0,3.4,1.5,3.4,3.9v4.6H80.1Z"/><path class="cls-2" d="M92,64.1H90.3L88.6,58l-1.7,6.1H85.2l-2.5-8.3h1.8l1.6,6.6,1.8-6.3h1.6l1.8,6.3,1.6-6.6h1.8Z"/><path class="cls-2" d="M102.3,64.3h-.1c-1.5,0-1.8-.4-2.1-1.2a3.34,3.34,0,0,1-2.5,1.2,2.34,2.34,0,0,1-2.5-2.4c0-2.3,2.8-2.9,4.9-3,0-1.6-.6-1.9-1.8-1.9a3.7,3.7,0,0,0-2.2.7l-.2-1.2a4.91,4.91,0,0,1,2.8-.9c2.1,0,2.9,1,2.9,4v1.7c0,1.2.1,1.7.9,1.7h.2ZM100,60c-2.4.1-3.4.6-3.4,1.8a1.16,1.16,0,0,0,1.3,1.3A2.61,2.61,0,0,0,100,62Z"/><path class="cls-2" d="M106.4,64.3h-.5a1.86,1.86,0,0,1-2.1-2V51.5h1.5v9.9c0,1.4.2,1.7,1.3,1.7Z"/><path class="cls-2" d="M111.8,64.3h-1.4a2,2,0,0,1-2.2-2V57h-1.3l.1-1.2h1.3v-2l1.5-.2v2.2H112V57h-2.2v4.4c0,1.6.1,1.7,1.7,1.7h.4Z"/><path class="cls-2" d="M122.5,64.1l-.2-.9a2.59,2.59,0,0,1-2.3,1.1c-1.9,0-3.1-1.1-3.1-3.6V55.9h1.5v4.4c0,1.8.6,2.7,1.9,2.7a2.2,2.2,0,0,0,1.9-.9V56h1.5v8.3h-1.2Z"/><path class="cls-2" d="M131.9,64.1V59.5c0-1.8-.6-2.5-2.2-2.5a2.59,2.59,0,0,0-2.3,1.1v6h-1.5V55.8h1.2l.2.9a4,4,0,0,1,2.7-1c2.4,0,3.4,1.5,3.4,3.9v4.6h-1.5Z"/><path class="cls-2" d="M141.3,64.1l-.2-1a3.48,3.48,0,0,1-2.5,1.2,4.06,4.06,0,0,1-3.8-4.3c0-2.3,1.5-4.3,3.8-4.3a3.37,3.37,0,0,1,2.5,1V51.4h1.5V64h-1.3ZM136.4,60c0,1.6.9,3,2.3,3a2.6,2.6,0,0,0,2.6-2.9,2.75,2.75,0,0,0-2.6-3C137.3,57,136.4,58.3,136.4,60Z"/><path class="cls-2" d="M156.6,64.1l-6.2-9.3v9.3h-1.6V52.3h1.7l5.8,8.8V52.3h1.6V64.1Z"/><path class="cls-2" d="M159.7,60a4.1,4.1,0,1,1,8.2,0,4.1,4.1,0,1,1-8.2,0Zm1.5,0c0,1.9.9,3,2.5,3s2.5-1.1,2.5-3-.9-3-2.5-3S161.2,58.1,161.2,60Z"/><path class="cls-2" d="M173.5,64.3h-1.4a2,2,0,0,1-2.2-2V57h-1.4l.1-1.2h1.3v-2l1.5-.2v2.2h2.2V57h-2.2v4.4c0,1.6.1,1.7,1.7,1.7h.4Z"/><path class="cls-2" d="M181.7,64.3h-.1c-1.5,0-1.8-.4-2.1-1.2a3.34,3.34,0,0,1-2.5,1.2,2.34,2.34,0,0,1-2.5-2.4c0-2.3,2.8-2.9,4.9-3,0-1.6-.6-1.9-1.8-1.9a3.7,3.7,0,0,0-2.2.7l-.2-1.2a4.91,4.91,0,0,1,2.8-.9c2.1,0,2.9,1,2.9,4v1.7c0,1.2.1,1.7.9,1.7h.2ZM179.3,60c-2.4.1-3.4.6-3.4,1.8a1.16,1.16,0,0,0,1.3,1.3,2.61,2.61,0,0,0,2.1-1.1Z"/><path class="cls-2" d="M187.1,57.2h-.5a2.37,2.37,0,0,0-1.9,1.1v5.8h-1.6V55.8h1.2l.2,1.4c1-1.1,1.8-1.7,2.8-1.7h.1Z"/></g></g></svg>